<mxfile host="app.diagrams.net" modified="2024-02-14T13:12:43.666Z" agent="Mozilla/5.0 (Windows NT 10.0; Win64; x64) AppleWebKit/537.36 (KHTML, like Gecko) Chrome/121.0.0.0 Safari/537.36" etag="WVMnmIapyE803nOWIfvQ" version="23.1.4" type="device">
  <diagram name="Page-1" id="0-rgOL32Ji9QFbOojKBc">
    <mxGraphModel dx="3903" dy="2665" grid="1" gridSize="10" guides="1" tooltips="1" connect="1" arrows="1" fold="1" page="1" pageScale="1" pageWidth="850" pageHeight="1100" math="0" shadow="0">
      <root>
        <mxCell id="0" />
        <mxCell id="1" parent="0" />
        <mxCell id="ufMI_q3MTJtmlBF9pDrs-26" value="" style="rounded=0;whiteSpace=wrap;html=1;" parent="1" vertex="1">
          <mxGeometry x="-320" y="-910" width="700" height="650" as="geometry" />
        </mxCell>
        <mxCell id="ufMI_q3MTJtmlBF9pDrs-7" value="" style="whiteSpace=wrap;html=1;fillColor=none;" parent="1" vertex="1">
          <mxGeometry x="-230" y="-890" width="520" height="610" as="geometry" />
        </mxCell>
        <mxCell id="g1T45PRozwDM7lAvmonb-6" style="edgeStyle=orthogonalEdgeStyle;rounded=0;orthogonalLoop=1;jettySize=auto;html=1;endArrow=none;" parent="1" source="g1T45PRozwDM7lAvmonb-1" target="g1T45PRozwDM7lAvmonb-15" edge="1">
          <mxGeometry relative="1" as="geometry">
            <mxPoint x="-150.00000000000227" y="-600" as="targetPoint" />
            <Array as="points">
              <mxPoint x="-190" y="-600" />
              <mxPoint x="-190" y="-710" />
            </Array>
          </mxGeometry>
        </mxCell>
        <mxCell id="g1T45PRozwDM7lAvmonb-16" style="edgeStyle=orthogonalEdgeStyle;rounded=0;orthogonalLoop=1;jettySize=auto;html=1;entryX=0;entryY=0.5;entryDx=0;entryDy=0;endArrow=none;" parent="1" source="g1T45PRozwDM7lAvmonb-1" target="g1T45PRozwDM7lAvmonb-14" edge="1">
          <mxGeometry relative="1" as="geometry">
            <Array as="points">
              <mxPoint x="-190" y="-600" />
              <mxPoint x="-190" y="-810" />
            </Array>
          </mxGeometry>
        </mxCell>
        <mxCell id="g1T45PRozwDM7lAvmonb-17" style="edgeStyle=orthogonalEdgeStyle;rounded=0;orthogonalLoop=1;jettySize=auto;html=1;entryX=0;entryY=0.5;entryDx=0;entryDy=0;endArrow=none;" parent="1" source="g1T45PRozwDM7lAvmonb-1" target="g1T45PRozwDM7lAvmonb-13" edge="1">
          <mxGeometry relative="1" as="geometry">
            <Array as="points">
              <mxPoint x="-190" y="-600" />
              <mxPoint x="-190" y="-610" />
            </Array>
          </mxGeometry>
        </mxCell>
        <mxCell id="ufMI_q3MTJtmlBF9pDrs-2" style="edgeStyle=orthogonalEdgeStyle;rounded=0;orthogonalLoop=1;jettySize=auto;html=1;entryX=0;entryY=0.5;entryDx=0;entryDy=0;endArrow=none;" parent="1" source="g1T45PRozwDM7lAvmonb-1" target="g1T45PRozwDM7lAvmonb-18" edge="1">
          <mxGeometry relative="1" as="geometry">
            <Array as="points">
              <mxPoint x="-190" y="-600" />
              <mxPoint x="-190" y="-360" />
            </Array>
          </mxGeometry>
        </mxCell>
        <mxCell id="ufMI_q3MTJtmlBF9pDrs-3" style="edgeStyle=orthogonalEdgeStyle;rounded=0;orthogonalLoop=1;jettySize=auto;html=1;endArrow=none;" parent="1" source="g1T45PRozwDM7lAvmonb-1" target="g1T45PRozwDM7lAvmonb-4" edge="1">
          <mxGeometry relative="1" as="geometry">
            <Array as="points">
              <mxPoint x="-190" y="-600" />
              <mxPoint x="-190" y="-460" />
            </Array>
          </mxGeometry>
        </mxCell>
        <mxCell id="ufMI_q3MTJtmlBF9pDrs-5" style="edgeStyle=orthogonalEdgeStyle;rounded=0;orthogonalLoop=1;jettySize=auto;html=1;entryX=0;entryY=0.5;entryDx=0;entryDy=0;endArrow=none;" parent="1" source="g1T45PRozwDM7lAvmonb-1" target="ufMI_q3MTJtmlBF9pDrs-13" edge="1">
          <mxGeometry relative="1" as="geometry">
            <mxPoint x="-30" y="-550" as="targetPoint" />
            <Array as="points">
              <mxPoint x="-190" y="-600" />
              <mxPoint x="-190" y="-550" />
            </Array>
          </mxGeometry>
        </mxCell>
        <mxCell id="g1T45PRozwDM7lAvmonb-1" value="User" style="shape=umlActor;verticalLabelPosition=bottom;verticalAlign=top;html=1;outlineConnect=0;" parent="1" vertex="1">
          <mxGeometry x="-300" y="-630" width="30" height="60" as="geometry" />
        </mxCell>
        <mxCell id="g1T45PRozwDM7lAvmonb-3" value="Write logs" style="ellipse;whiteSpace=wrap;html=1;" parent="1" vertex="1">
          <mxGeometry x="100" y="-500" width="120" height="80" as="geometry" />
        </mxCell>
        <mxCell id="g1T45PRozwDM7lAvmonb-4" value="Start save job" style="ellipse;whiteSpace=wrap;html=1;" parent="1" vertex="1">
          <mxGeometry x="-160" y="-500" width="120" height="80" as="geometry" />
        </mxCell>
        <mxCell id="g1T45PRozwDM7lAvmonb-9" value="" style="endArrow=classic;dashed=1;html=1;rounded=0;edgeStyle=orthogonalEdgeStyle;exitX=1;exitY=0.5;exitDx=0;exitDy=0;entryX=0;entryY=0.5;entryDx=0;entryDy=0;" parent="1" source="g1T45PRozwDM7lAvmonb-4" target="g1T45PRozwDM7lAvmonb-3" edge="1">
          <mxGeometry width="50" height="50" relative="1" as="geometry">
            <mxPoint x="80" y="-410" as="sourcePoint" />
            <mxPoint x="70" y="-410" as="targetPoint" />
            <Array as="points" />
          </mxGeometry>
        </mxCell>
        <mxCell id="ufMI_q3MTJtmlBF9pDrs-1" value="&amp;lt;&amp;lt;include&amp;gt;&amp;gt;" style="edgeLabel;html=1;align=center;verticalAlign=middle;resizable=0;points=[];fillColor=none;" parent="g1T45PRozwDM7lAvmonb-9" vertex="1" connectable="0">
          <mxGeometry x="-0.2783" y="-2" relative="1" as="geometry">
            <mxPoint x="25" y="-2" as="offset" />
          </mxGeometry>
        </mxCell>
        <mxCell id="g1T45PRozwDM7lAvmonb-13" value="Delete save job" style="ellipse;whiteSpace=wrap;html=1;" parent="1" vertex="1">
          <mxGeometry x="-160" y="-650" width="120" height="80" as="geometry" />
        </mxCell>
        <mxCell id="g1T45PRozwDM7lAvmonb-14" value="Update save job" style="ellipse;whiteSpace=wrap;html=1;" parent="1" vertex="1">
          <mxGeometry x="-160" y="-850" width="120" height="80" as="geometry" />
        </mxCell>
        <mxCell id="g1T45PRozwDM7lAvmonb-15" value="Create save job" style="ellipse;whiteSpace=wrap;html=1;" parent="1" vertex="1">
          <mxGeometry x="-160" y="-750" width="120" height="80" as="geometry" />
        </mxCell>
        <mxCell id="g1T45PRozwDM7lAvmonb-18" value="Choose language" style="ellipse;whiteSpace=wrap;html=1;" parent="1" vertex="1">
          <mxGeometry x="-160" y="-400" width="120" height="80" as="geometry" />
        </mxCell>
        <mxCell id="ufMI_q3MTJtmlBF9pDrs-8" value="&lt;font style=&quot;font-size: 14px;&quot;&gt;EaseSave&lt;/font&gt;" style="text;strokeColor=none;align=center;fillColor=none;html=1;verticalAlign=middle;whiteSpace=wrap;rounded=0;" parent="1" vertex="1">
          <mxGeometry x="220" y="-880" width="60" height="30" as="geometry" />
        </mxCell>
        <mxCell id="ufMI_q3MTJtmlBF9pDrs-10" value="" style="endArrow=classic;dashed=1;html=1;rounded=0;edgeStyle=orthogonalEdgeStyle;" parent="1" source="ufMI_q3MTJtmlBF9pDrs-12" target="g1T45PRozwDM7lAvmonb-3" edge="1">
          <mxGeometry width="50" height="50" relative="1" as="geometry">
            <mxPoint x="90" y="-550" as="sourcePoint" />
            <mxPoint x="320" y="-560" as="targetPoint" />
            <Array as="points" />
          </mxGeometry>
        </mxCell>
        <mxCell id="ufMI_q3MTJtmlBF9pDrs-11" value="&amp;lt;&amp;lt;extend&amp;gt;&amp;gt;" style="edgeLabel;html=1;align=center;verticalAlign=middle;resizable=0;points=[];fillColor=none;" parent="ufMI_q3MTJtmlBF9pDrs-10" vertex="1" connectable="0">
          <mxGeometry x="-0.2783" y="-2" relative="1" as="geometry">
            <mxPoint x="2" y="-2" as="offset" />
          </mxGeometry>
        </mxCell>
        <mxCell id="ufMI_q3MTJtmlBF9pDrs-12" value="Access logs" style="ellipse;whiteSpace=wrap;html=1;" parent="1" vertex="1">
          <mxGeometry x="100" y="-700" width="120" height="80" as="geometry" />
        </mxCell>
        <mxCell id="ufMI_q3MTJtmlBF9pDrs-13" value="Check progress of backup job" style="ellipse;whiteSpace=wrap;html=1;" parent="1" vertex="1">
          <mxGeometry x="-30" y="-590" width="120" height="80" as="geometry" />
        </mxCell>
        <mxCell id="ufMI_q3MTJtmlBF9pDrs-15" value="" style="endArrow=classic;dashed=1;html=1;rounded=0;edgeStyle=orthogonalEdgeStyle;entryX=0;entryY=0.5;entryDx=0;entryDy=0;exitX=0.5;exitY=0;exitDx=0;exitDy=0;" parent="1" source="ufMI_q3MTJtmlBF9pDrs-13" target="ufMI_q3MTJtmlBF9pDrs-12" edge="1">
          <mxGeometry width="50" height="50" relative="1" as="geometry">
            <mxPoint x="30" y="-730" as="sourcePoint" />
            <mxPoint x="30" y="-610" as="targetPoint" />
            <Array as="points" />
          </mxGeometry>
        </mxCell>
        <mxCell id="ufMI_q3MTJtmlBF9pDrs-16" value="&amp;lt;&amp;lt;include&amp;gt;&amp;gt;" style="edgeLabel;html=1;align=center;verticalAlign=middle;resizable=0;points=[];fillColor=none;" parent="ufMI_q3MTJtmlBF9pDrs-15" vertex="1" connectable="0">
          <mxGeometry x="-0.2783" y="-2" relative="1" as="geometry">
            <mxPoint x="-2" y="18" as="offset" />
          </mxGeometry>
        </mxCell>
        <mxCell id="ufMI_q3MTJtmlBF9pDrs-22" style="edgeStyle=orthogonalEdgeStyle;rounded=0;orthogonalLoop=1;jettySize=auto;html=1;entryX=1;entryY=0.5;entryDx=0;entryDy=0;endArrow=none;" parent="1" source="ufMI_q3MTJtmlBF9pDrs-17" target="ufMI_q3MTJtmlBF9pDrs-20" edge="1">
          <mxGeometry relative="1" as="geometry">
            <Array as="points">
              <mxPoint x="250" y="-600" />
              <mxPoint x="250" y="-360" />
            </Array>
          </mxGeometry>
        </mxCell>
        <mxCell id="ufMI_q3MTJtmlBF9pDrs-17" value="System" style="shape=umlActor;verticalLabelPosition=bottom;verticalAlign=top;html=1;outlineConnect=0;" parent="1" vertex="1">
          <mxGeometry x="330" y="-630" width="30" height="60" as="geometry" />
        </mxCell>
        <mxCell id="ufMI_q3MTJtmlBF9pDrs-20" value="Save data" style="ellipse;whiteSpace=wrap;html=1;" parent="1" vertex="1">
          <mxGeometry x="100" y="-400" width="120" height="80" as="geometry" />
        </mxCell>
        <mxCell id="ufMI_q3MTJtmlBF9pDrs-24" value="" style="endArrow=classic;dashed=1;html=1;rounded=0;edgeStyle=orthogonalEdgeStyle;exitX=0.987;exitY=0.625;exitDx=0;exitDy=0;exitPerimeter=0;" parent="1" source="g1T45PRozwDM7lAvmonb-4" target="ufMI_q3MTJtmlBF9pDrs-20" edge="1">
          <mxGeometry width="50" height="50" relative="1" as="geometry">
            <mxPoint x="-40" y="-390" as="sourcePoint" />
            <mxPoint x="122" y="-390" as="targetPoint" />
            <Array as="points">
              <mxPoint y="-450" />
              <mxPoint y="-360" />
            </Array>
          </mxGeometry>
        </mxCell>
        <mxCell id="ufMI_q3MTJtmlBF9pDrs-25" value="&amp;lt;&amp;lt;include&amp;gt;&amp;gt;" style="edgeLabel;html=1;align=center;verticalAlign=middle;resizable=0;points=[];fillColor=none;" parent="ufMI_q3MTJtmlBF9pDrs-24" vertex="1" connectable="0">
          <mxGeometry x="-0.2783" y="-2" relative="1" as="geometry">
            <mxPoint x="2" y="-10" as="offset" />
          </mxGeometry>
        </mxCell>
      </root>
    </mxGraphModel>
  </diagram>
</mxfile>
